<svg width="14" height="12" fill="none" xmlns="http://www.w3.org/2000/svg"><path d="M6.327 9.13c0-.732-.192-1.347-.575-1.847-.272-.343-.64-.569-1.106-.676a2.83 2.83 0 00-1.284-.024c-.133-.791.084-1.63.634-2.518.55-.887 1.262-1.556 2.131-2.002L4.811.167A8.9 8.9 0 002.927 1.42a9.552 9.552 0 00-1.583 1.745A6.916 6.916 0 00.302 5.408a6.744 6.744 0 00-.18 2.583c.14 1.167.516 2.1 1.13 2.792.612.7 1.376 1.05 2.29 1.05.804 0 1.471-.242 2-.732.523-.48.783-1.138.783-1.973l.002.002zm7.603 0c0-.732-.192-1.347-.575-1.847-.272-.35-.642-.576-1.106-.68-.466-.104-.895-.109-1.283-.019-.133-.783.075-1.625.625-2.516.55-.884 1.261-1.55 2.13-2L12.409.167a9.005 9.005 0 00-1.883 1.254 9.408 9.408 0 00-1.578 1.745 6.98 6.98 0 00-1.034 2.242 6.7 6.7 0 00-.18 2.583c.137 1.167.512 2.1 1.124 2.792.61.694 1.372 1.041 2.286 1.041.805 0 1.473-.241 2.001-.73.523-.48.785-1.137.785-1.973v.008l.001.002z" fill="#0E0D4C"/></svg>