<svg width="14" height="12" fill="none" xmlns="http://www.w3.org/2000/svg"><path d="M7.673 2.87c0 .732.192 1.347.575 1.847.272.343.64.569 1.106.676a2.83 2.83 0 001.284.024c.133.791-.084 1.63-.634 2.518-.55.887-1.262 1.556-2.131 2.002l1.316 1.896a8.9 8.9 0 001.883-1.254 9.55 9.55 0 001.584-1.745c.466-.657.816-1.4 1.041-2.242.226-.841.289-1.7.181-2.583-.14-1.167-.516-2.1-1.13-2.792-.612-.7-1.376-1.05-2.29-1.05-.804 0-1.471.242-2 .732-.523.48-.783 1.138-.783 1.973l-.002-.002zm-7.603 0c0 .732.192 1.347.575 1.847.272.35.642.576 1.106.68.467.104.895.109 1.283.019.134.783-.075 1.625-.625 2.516-.55.884-1.261 1.55-2.13 2l1.313 1.901a9.007 9.007 0 001.883-1.254 9.408 9.408 0 001.578-1.745 6.98 6.98 0 001.034-2.242 6.7 6.7 0 00.18-2.583c-.137-1.167-.512-2.1-1.124-2.792C4.533.523 3.77.176 2.858.176c-.806 0-1.474.241-2.002.73C.333 1.386.07 2.043.07 2.879v-.01z" fill="#0E0D4C"/></svg>