<svg width="130" height="252" fill="none" xmlns="http://www.w3.org/2000/svg"><g opacity=".3"><path d="M14.778 14.8L0 0v29.578L14.778 14.8z" fill="#6957ED"/><path d="M14.778 14.8L0 0v29.578L14.778 14.8z" fill="#53650E"/><path d="M14.778 59.087L0 44.31v29.578l14.778-14.8z" fill="#6957ED"/><path d="M14.778 59.087L0 44.31v29.578l14.778-14.8z" fill="#53650E"/><path d="M14.778 103.399L0 88.621V118.2l14.778-14.8z" fill="#6957ED"/><path d="M14.778 103.399L0 88.621V118.2l14.778-14.8z" fill="#53650E"/><path d="M14.778 147.709L0 132.931v29.555l14.778-14.777z" fill="#6957ED"/><path d="M14.778 147.709L0 132.931v29.555l14.778-14.777z" fill="#53650E"/><path d="M14.778 192.019L0 177.241v29.555l14.778-14.777z" fill="#6957ED"/><path d="M14.778 192.019L0 177.241v29.555l14.778-14.777z" fill="#53650E"/><path d="M14.778 236.329L0 221.551v29.555l14.778-14.777z" fill="#6957ED"/><path d="M14.778 236.329L0 221.551v29.555l14.778-14.777z" fill="#53650E"/><path d="M60.038 59.088L45.26 44.31v29.578l14.778-14.8z" fill="#6957ED"/><path d="M60.038 59.088L45.26 44.31v29.578l14.778-14.8z" fill="#53650E"/><path d="M60.038 103.398L45.261 88.62v29.578l14.777-14.8z" fill="#6957ED"/><path d="M60.038 103.398L45.261 88.62v29.578l14.777-14.8z" fill="#53650E"/><path d="M60.038 147.709L45.26 132.931v29.555l14.778-14.777z" fill="#6957ED"/><path d="M60.038 147.709L45.26 132.931v29.555l14.778-14.777z" fill="#53650E"/><path d="M60.038 192.019l-14.777-14.778v29.556l14.777-14.778z" fill="#6957ED"/><path d="M60.038 192.019l-14.777-14.778v29.556l14.777-14.778z" fill="#53650E"/><path d="M105.274 103.398L90.497 88.621v29.578l14.777-14.801z" fill="#6957ED"/><path d="M105.274 103.398L90.497 88.621v29.578l14.777-14.801z" fill="#53650E"/><path d="M105.275 147.708l-14.778-14.777v29.555l14.778-14.778z" fill="#6957ED"/><path d="M105.275 147.708l-14.778-14.777v29.555l14.778-14.778z" fill="#53650E"/><path d="M38.707 36.944L23.929 22.166v29.556l14.778-14.778z" fill="#6957ED"/><path d="M38.707 36.944L23.929 22.166v29.556l14.778-14.778z" fill="#53650E"/><path d="M38.708 81.255L23.93 66.477v29.555l14.778-14.777z" fill="#6957ED"/><path d="M38.708 81.255L23.93 66.477v29.555l14.778-14.777z" fill="#53650E"/><path d="M38.708 125.566L23.93 110.788v29.555l14.778-14.777z" fill="#6957ED"/><path d="M38.708 125.566L23.93 110.788v29.555l14.778-14.777z" fill="#53650E"/><path d="M38.707 169.875L23.93 155.098v29.555l14.777-14.778z" fill="#6957ED"/><path d="M38.707 169.875L23.93 155.098v29.555l14.777-14.778z" fill="#53650E"/><path d="M38.708 214.186L23.93 199.408v29.556l14.778-14.778z" fill="#6957ED"/><path d="M38.708 214.186L23.93 199.408v29.556l14.778-14.778z" fill="#53650E"/><path d="M82.655 81.254L67.878 66.477v29.555l14.777-14.778z" fill="#6957ED"/><path d="M82.655 81.254L67.878 66.477v29.555l14.777-14.778z" fill="#53650E"/><path d="M82.656 125.564l-14.778-14.777v29.555l14.778-14.778z" fill="#6957ED"/><path d="M82.656 125.564l-14.778-14.777v29.555l14.778-14.778z" fill="#53650E"/><path d="M82.656 169.875L67.88 155.097v29.555l14.777-14.777z" fill="#6957ED"/><path d="M82.656 169.875L67.88 155.097v29.555l14.777-14.777z" fill="#53650E"/><path d="M129.475 125.565l-14.778-14.777v29.555l14.778-14.778z" fill="#6957ED"/><path d="M129.475 125.565l-14.778-14.777v29.555l14.778-14.778z" fill="#53650E"/></g></svg>