<svg width="130" height="252" fill="none" xmlns="http://www.w3.org/2000/svg"><g opacity=".3"><path d="M114.697 236.306l14.777 14.8v-29.578l-14.777 14.778z" fill="#6957ED"/><path d="M114.697 236.306l14.777 14.8v-29.578l-14.777 14.778z" fill="#53650E"/><path d="M114.697 192.019l14.777 14.778v-29.578l-14.777 14.8z" fill="#6957ED"/><path d="M114.697 192.019l14.777 14.778v-29.578l-14.777 14.8z" fill="#53650E"/><path d="M114.696 147.708l14.778 14.777v-29.578l-14.778 14.801z" fill="#6957ED"/><path d="M114.696 147.708l14.778 14.777v-29.578l-14.778 14.801z" fill="#53650E"/><path d="M114.697 103.398l14.777 14.777V88.62l-14.777 14.778z" fill="#6957ED"/><path d="M114.697 103.398l14.777 14.777V88.62l-14.777 14.778z" fill="#53650E"/><path d="M114.697 59.088l14.777 14.777V44.31l-14.777 14.778z" fill="#6957ED"/><path d="M114.697 59.088l14.777 14.777V44.31l-14.777 14.778z" fill="#53650E"/><path d="M114.696 14.778l14.778 14.777V0l-14.778 14.778z" fill="#6957ED"/><path d="M114.696 14.778l14.778 14.777V0l-14.778 14.778z" fill="#53650E"/><path d="M69.437 192.019l14.777 14.777v-29.578l-14.777 14.801z" fill="#6957ED"/><path d="M69.437 192.019l14.777 14.777v-29.578l-14.777 14.801z" fill="#53650E"/><path d="M69.436 147.709l14.778 14.777v-29.577l-14.778 14.8z" fill="#6957ED"/><path d="M69.436 147.709l14.778 14.777v-29.577l-14.778 14.8z" fill="#53650E"/><path d="M69.437 103.398l14.777 14.778V88.62l-14.777 14.778z" fill="#6957ED"/><path d="M69.437 103.398l14.777 14.778V88.62l-14.777 14.778z" fill="#53650E"/><path d="M69.436 59.087l14.778 14.778V44.31L69.436 59.087z" fill="#6957ED"/><path d="M69.436 59.087l14.778 14.778V44.31L69.436 59.087z" fill="#53650E"/><path d="M24.2 147.708l14.778 14.778v-29.578l-14.778 14.8z" fill="#6957ED"/><path d="M24.2 147.708l14.778 14.778v-29.578l-14.778 14.8z" fill="#53650E"/><path d="M24.2 103.398l14.778 14.778V88.62L24.2 103.398z" fill="#6957ED"/><path d="M24.2 103.398l14.778 14.778V88.62L24.2 103.398z" fill="#53650E"/><path d="M90.768 214.162l14.778 14.778v-29.555l-14.778 14.777z" fill="#6957ED"/><path d="M90.768 214.162l14.778 14.778v-29.555l-14.778 14.777z" fill="#53650E"/><path d="M90.767 169.852l14.777 14.777v-29.555l-14.777 14.778z" fill="#6957ED"/><path d="M90.767 169.852l14.777 14.777v-29.555l-14.777 14.778z" fill="#53650E"/><path d="M90.767 125.541l14.778 14.777v-29.555l-14.778 14.778z" fill="#6957ED"/><path d="M90.767 125.541l14.778 14.777v-29.555l-14.778 14.778z" fill="#53650E"/><path d="M90.767 81.23l14.778 14.778V66.453L90.767 81.231z" fill="#6957ED"/><path d="M90.767 81.23l14.778 14.778V66.453L90.767 81.231z" fill="#53650E"/><path d="M90.767 36.92l14.778 14.778V22.143L90.767 36.92z" fill="#6957ED"/><path d="M90.767 36.92l14.778 14.778V22.143L90.767 36.92z" fill="#53650E"/><path d="M46.82 169.852l14.777 14.778v-29.555l-14.778 14.777z" fill="#6957ED"/><path d="M46.82 169.852l14.777 14.778v-29.555l-14.778 14.777z" fill="#53650E"/><path d="M46.819 125.542l14.777 14.778v-29.556L46.82 125.542z" fill="#6957ED"/><path d="M46.819 125.542l14.777 14.778v-29.556L46.82 125.542z" fill="#53650E"/><path d="M46.818 81.232L61.596 96.01V66.454L46.818 81.232z" fill="#6957ED"/><path d="M46.818 81.232L61.596 96.01V66.454L46.818 81.232z" fill="#53650E"/><path d="M0 125.541l14.778 14.778v-29.556L0 125.541z" fill="#6957ED"/><path d="M0 125.541l14.778 14.778v-29.556L0 125.541z" fill="#53650E"/></g></svg>