<svg width="115" height="143" fill="none" xmlns="http://www.w3.org/2000/svg"><path d="M73.678 85.558c0-1.59-1.15-2.74-2.725-2.74-1.59 0-2.74 1.15-2.74 2.726 0 1.59 1.15 2.725 2.726 2.74 1.59 0 2.74-1.136 2.74-2.726zm0 27.341c.029-1.589-1.093-2.782-2.668-2.81-1.59-.029-2.783 1.107-2.811 2.669-.029 1.589 1.093 2.768 2.669 2.796 1.604.043 2.782-1.079 2.81-2.655zm0 27.243c.014-1.59-1.135-2.754-2.711-2.768-1.59-.015-2.754 1.135-2.768 2.711-.014 1.59 1.121 2.74 2.711 2.754 1.604.014 2.754-1.107 2.768-2.697zM54.556 17.331c0 1.59 1.136 2.74 2.726 2.74s2.74-1.135 2.74-2.725-1.15-2.74-2.726-2.74c-1.576-.014-2.725 1.15-2.74 2.725zm0 27.243c-.014 1.59 1.108 2.754 2.697 2.782 1.605.014 2.769-1.107 2.783-2.683.014-1.59-1.107-2.768-2.683-2.782-1.59-.029-2.768 1.121-2.797 2.683zm5.48 27.299c-.014-1.576-1.178-2.726-2.768-2.712-1.576.015-2.726 1.193-2.712 2.769.014 1.59 1.178 2.711 2.768 2.697 1.59 0 2.726-1.164 2.712-2.754zm0 27.427c.042-1.59-1.065-2.797-2.627-2.854-1.59-.042-2.796 1.065-2.853 2.627-.042 1.589 1.065 2.796 2.626 2.839 1.619.057 2.811-1.037 2.854-2.612zm0 27.228c.014-1.59-1.122-2.769-2.683-2.783-1.59-.014-2.768 1.122-2.783 2.698-.014 1.589 1.122 2.754 2.698 2.768 1.59.014 2.754-1.108 2.768-2.683zm-19.122-95.54c.014 1.59 1.164 2.726 2.754 2.712 1.59 0 2.726-1.15 2.726-2.74 0-1.59-1.165-2.726-2.755-2.726-1.575.014-2.725 1.178-2.725 2.754zm2.938 24.545c-1.604-.085-2.839.994-2.938 2.541-.085 1.59.994 2.84 2.541 2.925 1.604.085 2.84-.98 2.924-2.527.1-1.619-.98-2.854-2.526-2.939zm2.542 30.124c.042-1.59-1.05-2.796-2.627-2.839-1.59-.043-2.796 1.065-2.853 2.626-.043 1.59 1.065 2.797 2.626 2.84 1.619.042 2.811-1.051 2.854-2.627zm-.001 27.129c-.014-1.576-1.192-2.712-2.782-2.683-1.576.014-2.711 1.192-2.697 2.782.028 1.576 1.192 2.698 2.782 2.683 1.59-.028 2.712-1.192 2.697-2.782zm-19.122-68.17c0 1.59 1.136 2.726 2.726 2.74 1.59 0 2.74-1.136 2.74-2.726s-1.15-2.74-2.726-2.74-2.74 1.15-2.74 2.726zm5.479 27.228c-.028-1.575-1.206-2.711-2.796-2.683-1.576.029-2.711 1.207-2.683 2.797.029 1.576 1.193 2.697 2.797 2.669 1.59-.014 2.711-1.178 2.683-2.783zm.001 27.399c.015-1.59-1.121-2.768-2.683-2.783-1.59-.014-2.768 1.122-2.782 2.698-.014 1.59 1.107 2.754 2.697 2.768 1.59.014 2.754-1.107 2.768-2.683zM13.63 58.16c-.044 1.59 1.064 2.796 2.625 2.839 1.605.042 2.797-1.051 2.84-2.613.042-1.59-1.065-2.796-2.627-2.853-1.575-.057-2.782 1.065-2.839 2.626zm5.478 27.455c.029-1.59-1.093-2.783-2.668-2.811-1.59-.029-2.783 1.107-2.811 2.669-.029 1.59 1.093 2.768 2.669 2.796 1.604.043 2.782-1.079 2.81-2.654zM5.466 71.859c-.028-1.576-1.192-2.712-2.782-2.683-1.576.028-2.712 1.206-2.683 2.782.028 1.576 1.192 2.697 2.782 2.683 1.576-.028 2.711-1.192 2.683-2.782zm103.66-27.229c0 1.59 1.15 2.726 2.754 2.726 1.59 0 2.725-1.15 2.725-2.74 0-1.59-1.164-2.74-2.739-2.725-1.59 0-2.74 1.164-2.74 2.74zm2.555 29.997c1.605.085 2.84-.98 2.925-2.527.085-1.604-.994-2.84-2.541-2.924-1.59-.086-2.84.993-2.925 2.54-.099 1.59.994 2.84 2.541 2.91zm2.925 24.616c.014-1.59-1.122-2.768-2.683-2.783-1.59-.014-2.769 1.122-2.783 2.698-.014 1.59 1.108 2.754 2.698 2.768 1.589.014 2.739-1.107 2.768-2.683zM95.484 31.03c.028 1.576 1.192 2.698 2.782 2.684 1.576-.014 2.712-1.179 2.683-2.783-.028-1.576-1.192-2.711-2.782-2.683-1.562.014-2.698 1.193-2.683 2.783zm5.479 27.286c.015-1.59-1.107-2.755-2.683-2.783-1.59-.014-2.768 1.107-2.782 2.683-.014 1.59 1.107 2.754 2.697 2.783 1.576.014 2.74-1.108 2.768-2.684zm0 27.256c.015-1.59-1.121-2.754-2.711-2.754-1.59-.014-2.754 1.136-2.768 2.711-.015 1.59 1.135 2.74 2.711 2.754 1.604 0 2.754-1.121 2.768-2.711zm0 27.257c0-1.59-1.15-2.726-2.74-2.726-1.59 0-2.74 1.164-2.725 2.74 0 1.59 1.15 2.725 2.753 2.725 1.576-.014 2.712-1.15 2.712-2.739zM81.841 17.303c-.014 1.59 1.122 2.74 2.712 2.754 1.59.014 2.754-1.121 2.768-2.697.014-1.59-1.136-2.754-2.712-2.768-1.575 0-2.754 1.15-2.768 2.711zm0 27.285c-.014 1.59 1.122 2.74 2.712 2.754 1.59.014 2.754-1.121 2.768-2.697.014-1.59-1.136-2.754-2.712-2.769-1.575 0-2.754 1.15-2.768 2.712zm5.479 27.427c.043-1.59-1.064-2.797-2.626-2.854-1.59-.042-2.796 1.065-2.853 2.627-.057 1.59 1.065 2.796 2.626 2.839 1.619.057 2.797-1.036 2.854-2.612zm0 27.185c0-1.59-1.149-2.74-2.725-2.74-1.59 0-2.74 1.15-2.754 2.726 0 1.59 1.136 2.74 2.726 2.74 1.604 0 2.754-1.136 2.754-2.726zm0 27.299c.015-1.59-1.135-2.754-2.71-2.768-1.59-.014-2.755 1.136-2.769 2.712-.014 1.589 1.136 2.739 2.712 2.754 1.604.014 2.754-1.108 2.768-2.698zM68.199 3.675c-.014 1.59 1.135 2.74 2.711 2.754 1.59.014 2.754-1.122 2.754-2.697.014-1.59-1.136-2.754-2.711-2.769C69.39.95 68.213 2.1 68.199 3.675zm-.001 27.2c-.056 1.59 1.065 2.796 2.627 2.839 1.604.042 2.796-1.05 2.853-2.612.043-1.59-1.064-2.797-2.626-2.854-1.59-.056-2.797 1.065-2.854 2.627zm5.48 27.426c.014-1.59-1.121-2.768-2.697-2.782-1.59-.014-2.768 1.121-2.782 2.697-.014 1.59 1.121 2.754 2.697 2.768 1.604.029 2.768-1.093 2.782-2.683z" fill="#0B315E" fill-opacity=".7"/></svg>