<svg width="130" height="252" viewBox="0 0 130 252" fill="none" xmlns="http://www.w3.org/2000/svg">
<g opacity="0.3">
<path d="M14.778 14.8004L0.000302315 -6.45952e-07L0.000301022 29.578L14.778 14.8004Z" fill="#6957ED"/>
<path d="M14.778 14.8004L0.000302315 -6.45952e-07L0.000301022 29.578L14.778 14.8004Z" fill="#53650E"/>
<path d="M14.7779 59.0874L0.00024128 44.3098L0.000239987 73.8876L14.7779 59.0874Z" fill="#6957ED"/>
<path d="M14.7779 59.0874L0.00024128 44.3098L0.000239987 73.8876L14.7779 59.0874Z" fill="#53650E"/>
<path d="M14.7781 103.399L0.00048542 88.6213L0.000484127 118.199L14.7781 103.399Z" fill="#6957ED"/>
<path d="M14.7781 103.399L0.00048542 88.6213L0.000484127 118.199L14.7781 103.399Z" fill="#53650E"/>
<path d="M14.7779 147.709L0.00024128 132.931L0.000239988 162.486L14.7779 147.709Z" fill="#6957ED"/>
<path d="M14.7779 147.709L0.00024128 132.931L0.000239988 162.486L14.7779 147.709Z" fill="#53650E"/>
<path d="M14.7778 192.019L0.000180244 177.241L0.000178953 206.796L14.7778 192.019Z" fill="#6957ED"/>
<path d="M14.7778 192.019L0.000180244 177.241L0.000178953 206.796L14.7778 192.019Z" fill="#53650E"/>
<path d="M14.7781 236.329L0.00048542 221.551L0.000484128 251.106L14.7781 236.329Z" fill="#6957ED"/>
<path d="M14.7781 236.329L0.00048542 221.551L0.000484128 251.106L14.7781 236.329Z" fill="#53650E"/>
<path d="M60.0379 59.0879L45.2603 44.3103L45.2602 73.8881L60.0379 59.0879Z" fill="#6957ED"/>
<path d="M60.0379 59.0879L45.2603 44.3103L45.2602 73.8881L60.0379 59.0879Z" fill="#53650E"/>
<path d="M60.0383 103.398L45.2606 88.6201L45.2606 118.198L60.0383 103.398Z" fill="#6957ED"/>
<path d="M60.0383 103.398L45.2606 88.6201L45.2606 118.198L60.0383 103.398Z" fill="#53650E"/>
<path d="M60.038 147.709L45.2604 132.931L45.2604 162.486L60.038 147.709Z" fill="#6957ED"/>
<path d="M60.038 147.709L45.2604 132.931L45.2604 162.486L60.038 147.709Z" fill="#53650E"/>
<path d="M60.0383 192.019L45.2606 177.241L45.2606 206.797L60.0383 192.019Z" fill="#6957ED"/>
<path d="M60.0383 192.019L45.2606 177.241L45.2606 206.797L60.0383 192.019Z" fill="#53650E"/>
<path d="M105.274 103.398L90.4966 88.6208L90.4966 118.199L105.274 103.398Z" fill="#6957ED"/>
<path d="M105.274 103.398L90.4966 88.6208L90.4966 118.199L105.274 103.398Z" fill="#53650E"/>
<path d="M105.275 147.708L90.497 132.931L90.497 162.486L105.275 147.708Z" fill="#6957ED"/>
<path d="M105.275 147.708L90.497 132.931L90.497 162.486L105.275 147.708Z" fill="#53650E"/>
<path d="M38.7066 36.9442L23.929 22.1665L23.929 51.7218L38.7066 36.9442Z" fill="#6957ED"/>
<path d="M38.7066 36.9442L23.929 22.1665L23.929 51.7218L38.7066 36.9442Z" fill="#53650E"/>
<path d="M38.7079 81.2547L23.9302 66.4771L23.9302 96.0322L38.7079 81.2547Z" fill="#6957ED"/>
<path d="M38.7079 81.2547L23.9302 66.4771L23.9302 96.0322L38.7079 81.2547Z" fill="#53650E"/>
<path d="M38.7076 125.566L23.93 110.788L23.93 140.343L38.7076 125.566Z" fill="#6957ED"/>
<path d="M38.7076 125.566L23.93 110.788L23.93 140.343L38.7076 125.566Z" fill="#53650E"/>
<path d="M38.7073 169.875L23.9297 155.098L23.9297 184.653L38.7073 169.875Z" fill="#6957ED"/>
<path d="M38.7073 169.875L23.9297 155.098L23.9297 184.653L38.7073 169.875Z" fill="#53650E"/>
<path d="M38.7076 214.186L23.93 199.408L23.93 228.964L38.7076 214.186Z" fill="#6957ED"/>
<path d="M38.7076 214.186L23.93 199.408L23.93 228.964L38.7076 214.186Z" fill="#53650E"/>
<path d="M82.6552 81.2542L67.8776 66.4766L67.8776 96.0318L82.6552 81.2542Z" fill="#6957ED"/>
<path d="M82.6552 81.2542L67.8776 66.4766L67.8776 96.0318L82.6552 81.2542Z" fill="#53650E"/>
<path d="M82.6557 125.564L67.878 110.787L67.878 140.342L82.6557 125.564Z" fill="#6957ED"/>
<path d="M82.6557 125.564L67.878 110.787L67.878 140.342L82.6557 125.564Z" fill="#53650E"/>
<path d="M82.6562 169.875L67.8786 155.097L67.8786 184.652L82.6562 169.875Z" fill="#6957ED"/>
<path d="M82.6562 169.875L67.8786 155.097L67.8786 184.652L82.6562 169.875Z" fill="#53650E"/>
<path d="M129.475 125.565L114.697 110.788L114.697 140.343L129.475 125.565Z" fill="#6957ED"/>
<path d="M129.475 125.565L114.697 110.788L114.697 140.343L129.475 125.565Z" fill="#53650E"/>
</g>
</svg>
