<svg width="130" height="252" viewBox="0 0 130 252" fill="none" xmlns="http://www.w3.org/2000/svg">
<g opacity="0.3">
<path d="M114.697 236.306L129.474 251.106V221.528L114.697 236.306Z" fill="#6957ED"/>
<path d="M114.697 236.306L129.474 251.106V221.528L114.697 236.306Z" fill="#53650E"/>
<path d="M114.697 192.019L129.474 206.797V177.219L114.697 192.019Z" fill="#6957ED"/>
<path d="M114.697 192.019L129.474 206.797V177.219L114.697 192.019Z" fill="#53650E"/>
<path d="M114.696 147.708L129.474 162.485V132.907L114.696 147.708Z" fill="#6957ED"/>
<path d="M114.696 147.708L129.474 162.485V132.907L114.696 147.708Z" fill="#53650E"/>
<path d="M114.697 103.398L129.474 118.175V88.62L114.697 103.398Z" fill="#6957ED"/>
<path d="M114.697 103.398L129.474 118.175V88.62L114.697 103.398Z" fill="#53650E"/>
<path d="M114.697 59.0877L129.474 73.8655V44.3101L114.697 59.0877Z" fill="#6957ED"/>
<path d="M114.697 59.0877L129.474 73.8655V44.3101L114.697 59.0877Z" fill="#53650E"/>
<path d="M114.696 14.7776L129.474 29.5552V-2.28882e-05L114.696 14.7776Z" fill="#6957ED"/>
<path d="M114.696 14.7776L129.474 29.5552V-2.28882e-05L114.696 14.7776Z" fill="#53650E"/>
<path d="M69.4367 192.019L84.2144 206.796V177.218L69.4367 192.019Z" fill="#6957ED"/>
<path d="M69.4367 192.019L84.2144 206.796V177.218L69.4367 192.019Z" fill="#53650E"/>
<path d="M69.4363 147.709L84.214 162.486V132.909L69.4363 147.709Z" fill="#6957ED"/>
<path d="M69.4363 147.709L84.214 162.486V132.909L69.4363 147.709Z" fill="#53650E"/>
<path d="M69.4366 103.398L84.2142 118.176V88.6202L69.4366 103.398Z" fill="#6957ED"/>
<path d="M69.4366 103.398L84.2142 118.176V88.6202L69.4366 103.398Z" fill="#53650E"/>
<path d="M69.4363 59.0873L84.214 73.865V44.3097L69.4363 59.0873Z" fill="#6957ED"/>
<path d="M69.4363 59.0873L84.214 73.865V44.3097L69.4363 59.0873Z" fill="#53650E"/>
<path d="M24.2004 147.708L38.978 162.486V132.908L24.2004 147.708Z" fill="#6957ED"/>
<path d="M24.2004 147.708L38.978 162.486V132.908L24.2004 147.708Z" fill="#53650E"/>
<path d="M24.2 103.398L38.9776 118.176V88.6204L24.2 103.398Z" fill="#6957ED"/>
<path d="M24.2 103.398L38.9776 118.176V88.6204L24.2 103.398Z" fill="#53650E"/>
<path d="M90.768 214.162L105.546 228.94V199.385L90.768 214.162Z" fill="#6957ED"/>
<path d="M90.768 214.162L105.546 228.94V199.385L90.768 214.162Z" fill="#53650E"/>
<path d="M90.7667 169.852L105.544 184.629V155.074L90.7667 169.852Z" fill="#6957ED"/>
<path d="M90.7667 169.852L105.544 184.629V155.074L90.7667 169.852Z" fill="#53650E"/>
<path d="M90.767 125.541L105.545 140.318V110.763L90.767 125.541Z" fill="#6957ED"/>
<path d="M90.767 125.541L105.545 140.318V110.763L90.767 125.541Z" fill="#53650E"/>
<path d="M90.7672 81.2309L105.545 96.0085V66.4532L90.7672 81.2309Z" fill="#6957ED"/>
<path d="M90.7672 81.2309L105.545 96.0085V66.4532L90.7672 81.2309Z" fill="#53650E"/>
<path d="M90.767 36.9203L105.545 51.698V22.1427L90.767 36.9203Z" fill="#6957ED"/>
<path d="M90.767 36.9203L105.545 51.698V22.1427L90.767 36.9203Z" fill="#53650E"/>
<path d="M46.8194 169.852L61.597 184.63V155.075L46.8194 169.852Z" fill="#6957ED"/>
<path d="M46.8194 169.852L61.597 184.63V155.075L46.8194 169.852Z" fill="#53650E"/>
<path d="M46.8188 125.542L61.5965 140.32V110.764L46.8188 125.542Z" fill="#6957ED"/>
<path d="M46.8188 125.542L61.5965 140.32V110.764L46.8188 125.542Z" fill="#53650E"/>
<path d="M46.8183 81.2319L61.596 96.0095V66.4542L46.8183 81.2319Z" fill="#6957ED"/>
<path d="M46.8183 81.2319L61.596 96.0095V66.4542L46.8183 81.2319Z" fill="#53650E"/>
<path d="M0 125.541L14.7776 140.319L14.7776 110.763L0 125.541Z" fill="#6957ED"/>
<path d="M0 125.541L14.7776 140.319L14.7776 110.763L0 125.541Z" fill="#53650E"/>
</g>
</svg>
