<svg width="115" height="143" viewBox="0 0 115 143" fill="none" xmlns="http://www.w3.org/2000/svg">
<path d="M73.6785 85.5578C73.6785 83.9679 72.5286 82.818 70.9528 82.818C69.3629 82.818 68.213 83.9679 68.213 85.5436C68.213 87.1336 69.3629 88.2693 70.9386 88.2835C72.5286 88.2835 73.6785 87.1478 73.6785 85.5578Z" fill="#0B315E" fill-opacity="0.7"/>
<path d="M73.6784 112.899C73.7068 111.31 72.5853 110.117 71.0095 110.089C69.4195 110.06 68.2271 111.196 68.1987 112.758C68.1703 114.347 69.2918 115.526 70.8675 115.554C72.4717 115.597 73.65 114.475 73.6784 112.899Z" fill="#0B315E" fill-opacity="0.7"/>
<path d="M73.6783 140.142C73.6925 138.552 72.5427 137.388 70.9669 137.374C69.3769 137.359 68.2128 138.509 68.1987 140.085C68.1845 141.675 69.3201 142.825 70.9101 142.839C72.5143 142.853 73.6641 141.732 73.6783 140.142Z" fill="#0B315E" fill-opacity="0.7"/>
<path d="M54.5563 17.3314C54.5563 18.9214 55.692 20.0713 57.2819 20.0713C58.8719 20.0713 60.0218 18.9356 60.0218 17.3456C60.0218 15.7557 58.8719 14.6058 57.2961 14.6058C55.7204 14.5916 54.5705 15.7557 54.5563 17.3314Z" fill="#0B315E" fill-opacity="0.7"/>
<path d="M54.5562 44.5738C54.542 46.1637 55.6635 47.3278 57.2534 47.3562C58.8576 47.3704 60.0217 46.2489 60.0359 44.6731C60.0501 43.0832 58.9286 41.9049 57.3528 41.8907C55.7629 41.8623 54.5846 43.0122 54.5562 44.5738Z" fill="#0B315E" fill-opacity="0.7"/>
<path d="M60.0359 71.8728C60.0217 70.2971 58.8576 69.1472 57.2676 69.1614C55.6919 69.1756 54.542 70.3539 54.5562 71.9296C54.5704 73.5196 55.7345 74.6411 57.3244 74.6269C58.9144 74.6269 60.0501 73.4628 60.0359 71.8728Z" fill="#0B315E" fill-opacity="0.7"/>
<path d="M60.0357 99.2996C60.0783 97.7097 58.971 96.503 57.4095 96.4462C55.8195 96.4036 54.6128 97.5109 54.556 99.0725C54.5135 100.662 55.6208 101.869 57.1823 101.912C58.8007 101.969 59.9932 100.875 60.0357 99.2996Z" fill="#0B315E" fill-opacity="0.7"/>
<path d="M60.0359 126.528C60.0501 124.938 58.9144 123.759 57.3528 123.745C55.7629 123.731 54.5846 124.867 54.5704 126.443C54.5562 128.032 55.6919 129.197 57.2676 129.211C58.8576 129.225 60.0217 128.103 60.0359 126.528Z" fill="#0B315E" fill-opacity="0.7"/>
<path d="M40.9138 30.988C40.928 32.578 42.0779 33.7137 43.6678 33.6995C45.2578 33.6995 46.3935 32.5496 46.3935 30.9597C46.3935 29.3697 45.2294 28.234 43.6394 28.234C42.0637 28.2482 40.9138 29.4123 40.9138 30.988Z" fill="#0B315E" fill-opacity="0.7"/>
<path d="M43.8525 55.5331C42.2483 55.4479 41.0133 56.5268 40.9139 58.0742C40.8287 59.6641 41.9076 60.9134 43.455 60.9986C45.0592 61.0838 46.2942 60.0191 46.3794 58.4717C46.4788 56.8533 45.3999 55.6183 43.8525 55.5331Z" fill="#0B315E" fill-opacity="0.7"/>
<path d="M46.3937 85.6572C46.4363 84.0672 45.3432 82.8605 43.7674 82.818C42.1775 82.7754 40.9708 83.8827 40.914 85.4442C40.8714 87.0342 41.9787 88.2409 43.5403 88.2835C45.1586 88.326 46.3511 87.2329 46.3937 85.6572Z" fill="#0B315E" fill-opacity="0.7"/>
<path d="M46.3934 112.786C46.3792 111.21 45.2009 110.074 43.6109 110.103C42.0352 110.117 40.8995 111.295 40.9137 112.885C40.9421 114.461 42.1061 115.583 43.6961 115.568C45.2861 115.54 46.4076 114.376 46.3934 112.786Z" fill="#0B315E" fill-opacity="0.7"/>
<path d="M27.2713 44.6163C27.2713 46.2062 28.407 47.3419 29.997 47.3561C31.5869 47.3561 32.7368 46.2204 32.7368 44.6305C32.7368 43.0405 31.5869 41.8906 30.0112 41.8906C28.4354 41.8906 27.2713 43.0405 27.2713 44.6163Z" fill="#0B315E" fill-opacity="0.7"/>
<path d="M32.7509 71.8444C32.7225 70.2686 31.5443 69.133 29.9543 69.1613C28.3785 69.1897 27.2429 70.368 27.2712 71.958C27.2996 73.5337 28.4637 74.6552 30.0679 74.6268C31.6578 74.6126 32.7793 73.4486 32.7509 71.8444Z" fill="#0B315E" fill-opacity="0.7"/>
<path d="M32.7513 99.2428C32.7655 97.6529 31.6298 96.4746 30.0683 96.4604C28.4783 96.4462 27.3 97.5819 27.2858 99.1576C27.2716 100.748 28.3931 101.912 29.9831 101.926C31.5731 101.94 32.7371 100.819 32.7513 99.2428Z" fill="#0B315E" fill-opacity="0.7"/>
<path d="M13.6291 58.1593C13.5865 59.7493 14.6938 60.956 16.2554 60.9986C17.8595 61.0411 19.052 59.948 19.0946 58.3865C19.1372 56.7965 18.0299 55.5899 16.4683 55.5331C14.8925 55.4763 13.6859 56.5978 13.6291 58.1593Z" fill="#0B315E" fill-opacity="0.7"/>
<path d="M19.1085 85.6146C19.1369 84.0246 18.0154 82.8322 16.4396 82.8038C14.8497 82.7754 13.6572 83.9111 13.6288 85.4726C13.6004 87.0626 14.7219 88.2409 16.2977 88.2693C17.9018 88.3119 19.0801 87.1904 19.1085 85.6146Z" fill="#0B315E" fill-opacity="0.7"/>
<path d="M5.46603 71.8586C5.43764 70.2828 4.27356 69.1471 2.6836 69.1755C1.10784 69.2039 -0.0278502 70.3822 0.000542042 71.958C0.0289343 73.5337 1.19301 74.6552 2.78297 74.641C4.35874 74.6126 5.49442 73.4486 5.46603 71.8586Z" fill="#0B315E" fill-opacity="0.7"/>
<path d="M109.126 44.6305C109.126 46.2205 110.276 47.3562 111.88 47.3562C113.47 47.3562 114.605 46.2063 114.605 44.6163C114.605 43.0263 113.441 41.8765 111.866 41.8907C110.276 41.8907 109.126 43.0547 109.126 44.6305Z" fill="#0B315E" fill-opacity="0.7"/>
<path d="M111.681 74.6268C113.286 74.712 114.521 73.6473 114.606 72.0999C114.691 70.4958 113.612 69.2607 112.065 69.1755C110.475 69.0904 109.225 70.1693 109.14 71.7166C109.041 73.3066 110.134 74.5559 111.681 74.6268Z" fill="#0B315E" fill-opacity="0.7"/>
<path d="M114.606 99.2428C114.62 97.6529 113.484 96.4746 111.923 96.4604C110.333 96.4462 109.154 97.5819 109.14 99.1576C109.126 100.748 110.248 101.912 111.838 101.926C113.427 101.94 114.577 100.819 114.606 99.2428Z" fill="#0B315E" fill-opacity="0.7"/>
<path d="M95.4837 31.0307C95.5121 32.6064 96.6762 33.7279 98.2661 33.7137C99.8419 33.6995 100.978 32.5354 100.949 30.9313C100.921 29.3555 99.7567 28.2198 98.1667 28.2482C96.6052 28.2624 95.4695 29.4407 95.4837 31.0307Z" fill="#0B315E" fill-opacity="0.7"/>
<path d="M100.963 58.3155C100.978 56.7256 99.856 55.5615 98.2802 55.5331C96.6903 55.5189 95.512 56.6404 95.4978 58.2162C95.4836 59.8061 96.6051 60.9702 98.1951 60.9986C99.7708 61.0128 100.935 59.8913 100.963 58.3155Z" fill="#0B315E" fill-opacity="0.7"/>
<path d="M100.963 85.572C100.978 83.982 99.8418 82.8179 98.2519 82.8179C96.6619 82.8037 95.4978 83.9536 95.4836 85.5294C95.4694 87.1193 96.6193 88.2692 98.1951 88.2834C99.7992 88.2834 100.949 87.1619 100.963 85.572Z" fill="#0B315E" fill-opacity="0.7"/>
<path d="M100.963 112.829C100.963 111.239 99.8131 110.103 98.2231 110.103C96.6331 110.103 95.4833 111.267 95.4975 112.843C95.4975 114.433 96.6473 115.568 98.2515 115.568C99.8273 115.554 100.963 114.418 100.963 112.829Z" fill="#0B315E" fill-opacity="0.7"/>
<path d="M81.8411 17.3031C81.8269 18.893 82.9626 20.0429 84.5526 20.0571C86.1425 20.0713 87.3066 18.9356 87.3208 17.3599C87.335 15.7699 86.1851 14.6058 84.6093 14.5916C83.0336 14.5916 81.8553 15.7415 81.8411 17.3031Z" fill="#0B315E" fill-opacity="0.7"/>
<path d="M81.8411 44.5879C81.8269 46.1779 82.9626 47.3278 84.5526 47.342C86.1425 47.3562 87.3066 46.2205 87.3208 44.6447C87.335 43.0547 86.1851 41.8907 84.6093 41.8765C83.0336 41.8765 81.8553 43.0263 81.8411 44.5879Z" fill="#0B315E" fill-opacity="0.7"/>
<path d="M87.3207 72.0147C87.3632 70.4248 86.2559 69.2181 84.6944 69.1613C83.1044 69.1187 81.8977 70.226 81.841 71.7876C81.7842 73.3775 82.9057 74.5842 84.4672 74.6268C86.0856 74.6836 87.2639 73.5905 87.3207 72.0147Z" fill="#0B315E" fill-opacity="0.7"/>
<path d="M87.3209 99.2003C87.3209 97.6103 86.171 96.4604 84.5953 96.4604C83.0053 96.4604 81.8554 97.6103 81.8412 99.1861C81.8412 100.776 82.9769 101.926 84.5669 101.926C86.171 101.926 87.3209 100.79 87.3209 99.2003Z" fill="#0B315E" fill-opacity="0.7"/>
<path d="M87.3208 126.499C87.335 124.909 86.1851 123.745 84.6093 123.731C83.0194 123.717 81.8553 124.867 81.8411 126.443C81.8269 128.032 82.9768 129.182 84.5526 129.197C86.1567 129.211 87.3066 128.089 87.3208 126.499Z" fill="#0B315E" fill-opacity="0.7"/>
<path d="M68.1987 3.67481C68.1845 5.26477 69.3344 6.41465 70.9101 6.42885C72.5001 6.44304 73.6642 5.30736 73.6642 3.73159C73.6784 2.14163 72.5285 0.977552 70.9527 0.963356C69.3912 0.94916 68.2129 2.09904 68.1987 3.67481Z" fill="#0B315E" fill-opacity="0.7"/>
<path d="M68.1985 30.8745C68.1417 32.4645 69.2632 33.6712 70.8248 33.7137C72.4289 33.7563 73.6214 32.6632 73.6782 31.1017C73.7208 29.5117 72.6135 28.305 71.0519 28.2482C69.462 28.1915 68.2553 29.313 68.1985 30.8745Z" fill="#0B315E" fill-opacity="0.7"/>
<path d="M73.6783 58.3014C73.6925 56.7114 72.5568 55.5331 70.9811 55.5189C69.3911 55.5047 68.2128 56.6404 68.1987 58.2162C68.1845 59.8061 69.3201 60.9702 70.8959 60.9844C72.5001 61.0128 73.6641 59.8913 73.6783 58.3014Z" fill="#0B315E" fill-opacity="0.7"/>
</svg>
